# xmcd CD database file
#
# Track frame offsets:
#	150
#	24547
#	34776
#	60288
#	74121
#	103583
#	119431
#	142374
#	158720
#	173667
#	187891
#	206240
#	234909
#	250545
#
# Disc length: 3484 seconds
#
# Revision: 0
# Processed by: cddbd v1.5.1PL0 Copyright (c) Steve Scherf et al.
# Submitted via: Feurio! 1.66 - http://www.feurio.com
#
DISCID=c10d9a0e
DTITLE=Gaanix - in Norderstedt
DYEAR=2001
DGENRE=blues
TTITLE0=Interregio
TTITLE1=Nur Dich
TTITLE2=Aus´m Staub
TTITLE3=Saufen too Hus
TTITLE4=Rattenschaaf
TTITLE5=Olga
TTITLE6=Hamburg Blues
TTITLE7=Fieber
TTITLE8=Sie nahm das Fahrrad
TTITLE9=Plastik Blues
TTITLE10=Du sprichst zuviel
TTITLE11=Hilf mir
TTITLE12=Haut an Haut
TTITLE13=Lucille
EXTD=Jens Ebeling: Gitarren, Gesang, Harp, Kazoo\r\nChristian Fortner: Bass, 
EXTD=Recording\r\nClaus Hornmann: Trommeln, Gesumme\r\nAlle Texte von Jens 
EXTD=Ebeling, ausser 06, \r\nder ist eigentlich nur übersetzt. \r\nAufgenommen 
EXTD=im Probenraum direkt mit Tascam 8-Spur, \r\nabgemischt auf MD.
EXTT0=
EXTT1=
EXTT2=
EXTT3=
EXTT4=
EXTT5=
EXTT6=
EXTT7=
EXTT8=
EXTT9=
EXTT10=
EXTT11=
EXTT12=
EXTT13=
PLAYORDER=
